<?xml version="1.0" standalone="no"?>
<!DOCTYPE svg PUBLIC "-//W3C//DTD SVG 20010904//EN"
 "http://www.w3.org/TR/2001/REC-SVG-20010904/DTD/svg10.dtd">
<svg version="1.0" xmlns="http://www.w3.org/2000/svg"
 width="512.000000pt" height="512.000000pt" viewBox="0 0 512.000000 512.000000"
 preserveAspectRatio="xMidYMid meet">
<metadata>
Created by potrace 1.16, written by Peter Selinger 2001-2019
</metadata>
<g transform="translate(0.000000,512.000000) scale(0.100000,-0.100000)"
fill="#000000" stroke="none">
<path d="M2515 4705 c-114 -24 -245 -91 -332 -168 -21 -18 -71 -55 -111 -81
-144 -95 -223 -248 -224 -434 -1 -97 20 -188 59 -266 31 -63 61 -106 73 -106
14 0 94 118 134 197 20 40 47 106 61 148 31 95 42 115 63 115 10 0 58 -14 108
-30 172 -59 386 -103 605 -125 36 -4 62 -13 71 -23 8 -9 24 -52 36 -94 26 -92
71 -190 83 -182 17 10 82 137 101 197 117 375 -80 771 -423 852 -77 18 -222
18 -304 0z"/>
<path d="M901 4420 c-325 -88 -600 -404 -779 -895 -47 -128 -112 -381 -112
-434 0 -67 60 -131 124 -131 60 0 73 -14 91 -97 58 -265 251 -511 500 -636 84
-42 213 -77 318 -87 55 -6 106 -15 113 -21 10 -8 12 -36 7 -123 -11 -206 36
-332 203 -542 188 -236 294 -514 352 -924 l18 -125 92 -3 c51 -1 92 -1 92 0 1
2 9 154 19 338 24 426 31 447 178 577 148 131 188 143 455 143 218 0 257 -9
361 -83 136 -97 220 -214 232 -321 5 -47 35 -591 35 -636 0 -19 7 -20 94 -20
l93 0 7 63 c23 197 82 456 140 605 66 170 114 252 250 421 83 103 136 202 161
301 14 51 16 93 12 192 -3 93 -1 130 7 138 7 5 57 14 110 20 274 31 495 151
648 354 75 99 139 232 168 346 24 94 44 120 94 120 47 0 95 34 116 83 19 43
19 44 -5 153 -92 407 -246 727 -458 951 -102 107 -188 173 -292 223 -103 50
-187 70 -302 70 -110 0 -174 -12 -270 -52 -67 -27 -73 -32 -79 -65 -16 -88 21
-207 83 -264 60 -57 110 -74 213 -74 91 0 98 2 163 38 37 20 74 37 82 37 24 0
42 -28 50 -77 9 -65 26 -102 66 -147 32 -37 33 -41 30 -115 -6 -190 70 -364
217 -496 33 -29 42 -44 40 -64 -6 -49 -39 -56 -293 -57 -265 -1 -263 0 -343
-89 l-50 -56 -143 -3 c-203 -4 -310 -38 -459 -145 -73 -52 -75 -53 -110 -41
-88 32 -209 130 -277 225 l-21 30 -50 -48 c-93 -86 -216 -154 -315 -172 -78
-15 -226 53 -354 161 -28 24 -55 44 -60 44 -5 0 -17 -15 -28 -32 -47 -81 -174
-185 -254 -209 -36 -11 -39 -9 -112 43 -148 106 -257 140 -454 144 -77 1 -143
3 -146 3 -3 1 -21 22 -40 47 -19 25 -54 58 -79 72 l-45 27 -230 0 c-254 1
-287 7 -293 56 -2 19 7 34 35 60 153 139 223 294 223 492 0 87 1 90 35 130 34
40 65 117 65 163 0 24 24 54 43 54 7 0 45 -17 86 -37 70 -36 80 -38 165 -38
74 0 99 4 132 22 102 54 154 132 161 243 7 103 1 112 -114 150 -84 28 -115 33
-218 36 -97 3 -134 0 -194 -16z m3038 -1944 c20 -24 4 -53 -47 -84 -78 -48
-174 -129 -230 -195 -35 -41 -84 -123 -144 -241 -50 -99 -107 -197 -126 -218
-18 -20 -59 -50 -90 -65 -54 -27 -66 -28 -277 -37 -159 -6 -231 -5 -262 3 -61
17 -133 69 -167 123 -17 26 -33 47 -36 47 -3 0 -18 -21 -35 -47 -34 -53 -106
-106 -168 -123 -63 -18 -468 2 -521 25 -88 37 -119 75 -215 265 -130 255 -194
333 -363 443 -42 27 -79 57 -82 65 -9 23 21 63 46 63 33 0 178 -102 256 -181
89 -88 132 -153 232 -350 89 -175 113 -202 192 -218 81 -15 397 -23 440 -11
93 26 131 98 153 286 15 130 29 164 65 164 37 0 50 -34 66 -165 16 -142 40
-212 86 -250 49 -41 88 -46 310 -36 174 7 210 11 243 29 56 28 64 39 145 202
40 80 92 175 116 212 61 95 164 195 272 267 97 63 109 65 141 27z"/>
<path d="M2273 3973 c-52 -142 -128 -279 -212 -382 l-44 -55 12 -60 c17 -81
55 -176 105 -259 89 -149 283 -300 404 -313 41 -5 57 -1 127 35 199 101 359
307 402 517 l17 81 -39 74 c-22 41 -53 112 -70 159 l-30 85 -75 7 c-116 12
-331 55 -456 94 -132 39 -133 40 -141 17z"/>
<path d="M2337 1346 c-54 -20 -113 -61 -181 -125 -95 -90 -96 -95 -117 -471
-10 -179 -18 -331 -19 -337 0 -10 114 -13 540 -13 l540 0 -6 82 c-3 46 -11
198 -19 338 -10 193 -17 265 -30 298 -21 51 -156 181 -224 214 -43 21 -61 23
-246 26 -152 1 -209 -1 -238 -12z m255 -153 c10 -9 18 -30 18 -49 0 -26 6 -37
28 -48 42 -22 113 -29 162 -16 38 10 45 10 63 -8 28 -28 16 -66 -25 -83 -36
-15 -134 -18 -190 -6 l-38 8 0 -50 c0 -45 3 -52 28 -65 45 -23 97 -29 153 -17
48 11 55 10 72 -8 28 -27 16 -65 -25 -82 -36 -15 -132 -18 -190 -6 l-38 8 0
-50 c0 -46 3 -52 30 -66 43 -22 109 -29 159 -15 40 10 46 10 64 -8 28 -28 16
-66 -25 -83 -36 -15 -132 -18 -190 -6 -38 8 -38 8 -38 -24 0 -35 -24 -69 -48
-69 -28 0 -52 32 -52 67 l0 34 -37 -8 c-59 -12 -155 -9 -191 6 -41 17 -53 55
-25 83 18 18 24 18 64 8 50 -14 116 -7 159 15 27 14 30 20 30 66 l0 50 -37 -8
c-59 -12 -155 -9 -191 6 -41 17 -53 55 -25 83 18 18 25 18 63 8 49 -13 120 -6
162 16 25 13 28 20 28 65 l0 50 -37 -8 c-59 -12 -155 -9 -191 6 -41 17 -53 55
-25 83 18 18 25 18 63 8 49 -13 120 -6 162 16 22 12 28 21 28 49 0 57 44 83
82 48z"/>
</g>
</svg>
