<?xml version="1.0" standalone="no"?>
<!DOCTYPE svg PUBLIC "-//W3C//DTD SVG 20010904//EN"
 "http://www.w3.org/TR/2001/REC-SVG-20010904/DTD/svg10.dtd">
<svg version="1.0" xmlns="http://www.w3.org/2000/svg"
 width="1024.000000pt" height="1024.000000pt" viewBox="0 0 1024.000000 1024.000000"
 preserveAspectRatio="xMidYMid meet">
<metadata>
Created by potrace 1.16, written by Peter Selinger 2001-2019
</metadata>
<g transform="translate(0.000000,1024.000000) scale(0.100000,-0.100000)"
fill="#000000" stroke="none">
<path d="M4365 7773 c-16 -3 -33 -11 -38 -18 -4 -7 -25 -16 -47 -20 -22 -4
-40 -10 -40 -14 0 -5 -18 -16 -40 -26 -22 -10 -40 -22 -40 -27 0 -5 -9 -18
-20 -30 -10 -12 -17 -25 -14 -30 3 -4 -2 -8 -10 -8 -15 0 -21 -21 -17 -62 2
-11 -5 -18 -14 -18 -11 0 -15 -5 -12 -14 3 -8 1 -17 -6 -20 -9 -3 -8 -8 3 -16
11 -9 12 -13 3 -17 -10 -3 -13 -40 -13 -134 0 -71 -4 -129 -9 -129 -12 0 -76
-62 -90 -87 -6 -12 -11 -33 -11 -47 0 -14 -4 -26 -10 -26 -13 0 -13 -27 -1
-32 5 -1 11 -45 13 -97 3 -78 7 -96 22 -105 10 -6 27 -19 38 -28 12 -10 28
-18 37 -18 13 0 17 -17 19 -103 2 -56 8 -106 12 -112 4 -5 10 -21 12 -34 3
-22 -3 -27 -47 -40 -27 -8 -52 -18 -55 -21 -3 -3 -21 -12 -40 -20 -19 -8 -37
-16 -40 -20 -3 -3 -24 -14 -47 -25 -24 -11 -43 -23 -43 -27 0 -5 -7 -8 -15 -8
-22 0 -65 -22 -65 -34 0 -6 -18 -20 -40 -30 -22 -11 -40 -24 -40 -30 0 -6 -7
0 -16 12 -8 12 -22 22 -30 22 -8 0 -14 7 -14 15 0 8 -8 15 -19 15 -10 0 -24 7
-31 15 -7 9 -19 14 -26 11 -8 -3 -17 1 -21 8 -21 34 -178 49 -393 37 -55 -3
-130 -20 -140 -31 -3 -3 -24 -12 -47 -18 -23 -7 -48 -19 -56 -27 -8 -7 -30
-20 -51 -29 -20 -8 -36 -19 -36 -24 0 -5 -13 -15 -29 -22 -16 -6 -31 -20 -34
-31 -3 -10 -12 -19 -21 -19 -9 0 -16 -7 -16 -15 0 -9 -7 -18 -15 -21 -8 -4
-15 -14 -15 -24 0 -11 -5 -22 -11 -25 -6 -4 -8 -13 -5 -21 3 -8 -1 -17 -9 -20
-9 -4 -13 -15 -11 -30 4 -21 0 -24 -45 -30 -27 -4 -59 -15 -70 -25 -12 -11
-28 -19 -36 -19 -19 0 -55 -22 -71 -42 -7 -10 -17 -18 -22 -18 -12 0 -56 -44
-63 -64 -4 -9 -13 -16 -22 -16 -8 0 -15 -9 -15 -19 0 -11 -8 -26 -19 -33 -18
-13 -51 -93 -51 -123 0 -8 -4 -15 -9 -15 -6 0 -9 -50 -8 -120 1 -66 -1 -120
-6 -120 -4 0 -12 -11 -17 -25 -5 -14 -14 -25 -20 -25 -5 0 -10 -6 -10 -14 0
-7 -9 -25 -21 -40 -11 -14 -18 -30 -15 -35 4 -5 2 -11 -4 -13 -9 -3 -15 -33
-27 -130 -3 -27 -9 -48 -14 -48 -13 0 -9 -124 4 -133 9 -6 9 -10 0 -14 -18 -7
-16 -40 3 -47 8 -3 13 -10 10 -15 -9 -13 15 -165 26 -172 5 -3 10 -10 10 -15
0 -5 4 -19 9 -30 4 -12 11 -38 14 -58 4 -20 11 -36 15 -36 4 0 10 -8 14 -17 7
-22 26 -50 49 -75 9 -10 17 -21 17 -25 0 -5 16 -19 35 -32 19 -13 32 -27 29
-32 -3 -5 -1 -9 4 -9 6 0 31 -19 57 -42 26 -24 57 -47 69 -53 21 -9 33 -18 75
-55 9 -8 33 -23 54 -32 20 -10 37 -21 37 -26 0 -4 21 -14 48 -21 26 -8 52 -19
57 -26 6 -6 43 -20 82 -29 40 -10 71 -22 68 -26 -5 -8 -56 -18 -140 -27 -27
-3 -52 -9 -55 -13 -3 -4 -53 -13 -111 -20 -145 -17 -524 -3 -539 19 -3 5 -17
11 -32 14 -15 4 -33 14 -41 22 -8 7 -27 17 -41 21 -15 3 -33 15 -39 25 -7 11
-17 19 -24 19 -23 0 -83 34 -83 47 0 7 -6 13 -12 13 -14 0 -62 44 -93 85 -11
14 -30 36 -42 47 -13 12 -23 27 -23 34 0 6 -7 14 -15 18 -9 3 -12 12 -8 22 3
9 2 19 -4 23 -12 8 -33 81 -33 115 0 14 -4 26 -9 26 -5 0 -7 9 -4 20 3 11 0
27 -7 35 -16 20 -16 321 1 341 6 7 9 32 7 54 -2 22 -1 40 2 40 4 0 12 47 19
105 7 58 17 105 22 105 5 0 9 8 9 17 0 25 32 147 40 153 3 3 13 34 20 68 7 35
19 66 25 69 7 2 18 31 25 64 7 32 17 59 22 59 6 0 8 7 4 15 -3 8 -1 15 4 15 5
0 15 20 21 45 6 25 15 45 20 45 5 0 9 5 9 10 0 6 14 40 30 75 34 73 36 85 15
85 -8 0 -15 -4 -15 -10 0 -5 -7 -10 -15 -10 -8 0 -15 6 -15 14 0 39 -65 22
-81 -21 -5 -13 -15 -23 -24 -23 -8 0 -15 -6 -15 -13 0 -7 -31 -43 -70 -81 -38
-38 -68 -71 -65 -74 2 -2 -14 -21 -35 -41 -22 -21 -40 -41 -40 -45 0 -5 -16
-23 -35 -42 -19 -18 -35 -37 -35 -42 0 -5 -12 -20 -27 -35 -16 -14 -34 -32
-40 -39 -7 -7 -21 -21 -31 -31 -11 -9 -28 -34 -38 -55 -10 -20 -30 -49 -44
-65 -14 -15 -32 -36 -40 -45 -9 -10 -22 -32 -29 -50 -8 -18 -22 -37 -32 -43
-11 -5 -19 -16 -19 -24 0 -7 -6 -20 -13 -27 -7 -7 -22 -29 -33 -48 -10 -19
-25 -39 -31 -43 -7 -4 -13 -14 -13 -22 0 -8 -6 -18 -13 -22 -7 -4 -21 -28 -31
-53 -10 -25 -26 -53 -37 -63 -10 -10 -19 -27 -19 -38 0 -11 -7 -22 -15 -25 -8
-4 -15 -13 -15 -21 0 -8 -9 -27 -20 -43 -11 -15 -17 -30 -13 -34 3 -3 1 -6 -6
-6 -7 0 -17 -13 -22 -30 -6 -16 -16 -30 -21 -30 -6 0 -8 -9 -5 -19 3 -11 -1
-22 -9 -25 -7 -3 -16 -21 -20 -41 -3 -20 -12 -39 -20 -42 -7 -2 -15 -22 -19
-44 -4 -21 -12 -42 -19 -46 -7 -5 -18 -29 -26 -55 -7 -27 -17 -48 -22 -48 -6
0 -8 -9 -5 -20 3 -11 2 -20 -2 -20 -4 0 -13 -23 -20 -50 -7 -28 -16 -50 -21
-50 -4 0 -13 -28 -19 -62 -7 -35 -19 -75 -26 -91 -8 -15 -19 -71 -25 -125 -6
-53 -15 -104 -20 -113 -11 -21 -11 -437 0 -444 5 -3 14 -39 21 -80 6 -41 15
-75 20 -75 5 0 11 -23 15 -50 4 -28 10 -50 15 -50 5 0 6 -6 3 -14 -3 -7 1 -20
10 -28 8 -8 20 -34 27 -56 7 -23 16 -42 21 -42 4 0 7 -3 6 -7 -1 -5 6 -21 17
-38 60 -90 276 -295 312 -295 6 0 13 -7 16 -14 3 -8 22 -18 42 -22 20 -3 41
-12 48 -18 12 -12 140 -46 171 -46 9 0 16 -4 16 -9 0 -5 33 -15 73 -22 39 -7
75 -17 79 -23 9 -13 554 -21 571 -8 7 4 24 8 40 7 15 0 27 2 27 6 0 7 19 10
128 25 28 3 52 10 52 13 0 4 41 15 90 25 49 11 90 22 90 25 0 4 36 15 80 25
44 10 80 22 80 26 0 4 21 13 47 20 26 6 52 15 58 19 13 11 108 42 116 38 4 -1
15 5 25 15 11 9 39 21 63 28 24 6 50 18 58 25 7 8 30 17 49 21 20 4 38 13 41
20 3 8 13 14 23 14 11 0 21 4 25 10 3 5 12 7 20 4 7 -3 18 4 24 15 6 11 17 18
25 15 8 -3 17 -1 21 5 3 6 15 11 25 11 10 0 23 6 27 13 4 7 28 19 53 27 25 7
52 19 60 25 8 6 31 18 50 25 19 7 42 19 50 25 8 7 33 18 55 25 22 7 46 19 53
27 7 7 22 13 32 13 10 0 22 5 25 10 3 6 15 10 26 10 10 0 19 4 19 8 0 9 70 42
88 42 7 0 12 4 12 8 0 5 18 15 40 22 22 7 40 17 40 22 0 4 9 8 19 8 11 0 22 4
25 9 3 4 19 11 35 14 17 4 39 14 51 24 11 10 24 18 28 18 18 2 58 19 72 30 8
7 35 19 60 26 25 7 49 19 53 26 4 7 15 13 23 13 8 0 38 13 67 30 30 16 61 30
69 30 9 0 18 6 21 14 3 8 24 17 46 21 23 4 44 12 48 18 5 7 26 18 48 26 21 8
45 20 53 27 7 8 22 14 32 14 10 0 22 5 25 10 3 6 14 10 25 10 10 0 20 6 23 14
3 7 21 16 41 20 19 4 41 12 48 19 7 7 36 21 63 31 28 10 57 25 66 32 8 8 23
14 33 14 9 0 19 6 22 14 3 8 23 17 45 21 21 4 41 11 45 16 3 5 14 9 25 9 10 0
19 4 19 9 0 5 23 17 50 27 28 10 50 21 50 25 0 14 62 32 108 31 51 -1 174 -22
182 -32 8 -10 184 -40 231 -39 65 0 193 25 197 38 2 6 10 11 17 11 8 0 17 9
20 21 4 11 22 28 41 37 21 9 33 21 30 29 -3 7 -1 13 4 13 6 0 15 20 22 45 7
25 16 45 21 45 4 0 5 5 1 11 -4 8 0 8 15 0 12 -7 25 -9 30 -6 5 3 15 -1 23 -8
17 -18 139 -37 230 -37 106 0 248 18 286 36 18 8 46 16 63 16 18 1 34 8 40 19
5 10 16 16 23 13 8 -3 17 -1 21 5 3 6 17 11 30 11 13 0 28 6 32 13 11 16 49
37 68 37 9 0 18 6 21 14 3 8 13 17 22 20 26 8 55 29 70 49 7 9 19 17 25 17 7
1 21 12 32 26 11 15 32 39 46 54 14 15 29 35 32 44 4 9 11 16 18 16 6 0 9 6 6
14 -3 8 1 17 9 20 8 3 14 15 14 26 0 11 6 20 14 20 8 0 20 16 26 35 6 19 17
41 23 48 15 15 47 106 45 127 -4 45 3 69 22 75 11 3 20 13 20 21 0 8 5 14 10
14 6 0 9 21 7 49 -2 49 -2 49 35 62 21 7 38 15 38 19 0 4 21 15 48 25 26 10
50 24 55 31 4 7 25 15 48 19 22 4 43 13 45 20 3 8 28 22 55 31 27 10 49 22 49
26 0 4 9 8 19 8 11 0 23 5 26 10 3 6 15 10 26 10 10 0 19 5 19 10 0 6 6 10 13
10 7 0 44 16 81 35 38 19 74 35 82 35 7 0 19 6 26 13 7 7 28 19 46 26 17 7 32
17 32 21 0 4 26 15 58 26 31 10 59 22 62 25 9 10 72 39 85 39 7 0 15 7 19 15
3 8 14 15 25 15 11 0 23 5 26 10 3 6 15 10 25 10 10 0 20 4 22 8 3 7 65 39
148 76 14 6 33 19 44 28 10 9 36 20 57 23 22 4 39 10 39 15 0 9 119 70 136 70
6 0 19 9 29 20 9 10 20 18 24 17 12 -4 91 26 91 35 0 4 9 8 19 8 11 0 23 5 26
10 3 6 14 10 24 10 10 0 29 9 42 21 13 11 36 23 51 26 16 3 28 9 28 14 0 5 8
9 19 9 10 0 24 6 31 14 6 8 18 12 26 9 7 -3 16 1 19 10 4 8 32 23 63 33 31 10
60 24 64 30 7 11 55 29 70 26 3 -1 12 5 18 13 7 8 21 15 31 15 10 0 21 5 24
10 3 6 15 10 26 10 10 0 19 4 19 9 0 4 20 16 45 25 25 10 45 21 45 25 0 4 25
16 55 26 30 11 55 23 55 27 0 4 15 11 33 16 27 7 32 13 33 38 1 42 -6 59 -18
42 -6 -9 -7 -3 -4 17 9 45 -5 59 -50 51 -22 -4 -55 -15 -74 -25 -19 -10 -63
-23 -97 -31 -35 -7 -63 -16 -63 -20 0 -4 -36 -15 -80 -25 -44 -10 -80 -22 -80
-26 0 -4 -23 -10 -50 -14 -28 -4 -56 -12 -63 -19 -6 -7 -37 -18 -67 -25 -92
-20 -105 -24 -110 -30 -3 -4 -36 -15 -75 -25 -38 -10 -73 -22 -76 -28 -4 -6
-9 -5 -12 3 -5 11 -8 11 -16 -2 -6 -10 -32 -20 -58 -24 -27 -4 -52 -10 -58
-15 -12 -9 -124 -43 -145 -43 -8 0 -17 -4 -21 -8 -3 -5 -36 -16 -75 -26 -38
-9 -71 -19 -74 -23 -3 -3 -41 -15 -85 -25 -44 -11 -82 -22 -85 -25 -8 -8 -75
-30 -94 -30 -9 0 -27 -6 -39 -14 -12 -8 -49 -20 -82 -26 -33 -7 -63 -18 -68
-26 -4 -7 -14 -11 -22 -8 -8 3 -20 2 -27 -2 -14 -9 -26 -12 -78 -21 -19 -3
-36 -9 -38 -13 -2 -5 -29 -15 -60 -21 -31 -7 -62 -18 -68 -24 -7 -6 -44 -17
-83 -25 -39 -7 -71 -17 -71 -22 0 -4 -9 -8 -19 -8 -11 0 -23 -5 -26 -10 -4 -6
-10 -8 -14 -6 -9 6 -94 -13 -101 -23 -3 -4 -41 -16 -85 -26 -44 -11 -83 -23
-86 -28 -3 -4 -21 -10 -40 -13 -31 -5 -39 -1 -76 35 -22 23 -48 41 -56 41 -9
0 -19 5 -22 10 -3 6 -15 10 -25 10 -14 0 -18 6 -14 25 2 14 0 25 -5 25 -5 0
-12 18 -16 39 -4 22 -15 50 -25 62 -11 12 -22 30 -25 40 -7 21 -59 79 -72 79
-4 0 -21 14 -36 30 -16 17 -37 30 -47 30 -10 0 -25 6 -32 14 -8 7 -42 20 -78
29 -35 9 -66 21 -70 27 -3 6 -27 10 -53 9 -26 -1 -50 1 -53 4 -4 4 -7 27 -7
52 0 25 -3 45 -7 45 -3 0 -12 29 -19 65 -7 36 -16 65 -20 65 -4 0 -14 12 -22
28 -7 15 -29 42 -47 60 -18 17 -30 32 -26 32 4 0 -1 9 -11 20 -10 11 -23 20
-28 20 -5 0 -20 10 -32 23 -49 50 -125 87 -180 87 -11 0 -25 4 -31 9 -12 11
-128 31 -181 31 -24 0 -44 5 -46 13 -4 9 -8 8 -16 -3 -7 -10 -11 -11 -11 -2 0
7 -14 12 -35 12 -19 0 -35 -4 -35 -10 0 -5 -20 -10 -44 -10 -53 0 -146 -20
-146 -32 0 -4 -7 -8 -15 -8 -21 0 -169 -73 -189 -93 -16 -16 -46 -13 -46 4 0
4 -16 16 -35 25 -19 9 -35 20 -35 25 0 5 -9 9 -19 9 -11 0 -23 5 -26 10 -3 6
-15 10 -25 10 -10 0 -23 7 -28 15 -5 9 -29 18 -61 22 -30 3 -55 12 -58 19 -3
8 -20 14 -40 14 -28 0 -34 3 -29 16 3 9 6 55 6 104 l0 88 36 6 c19 4 43 15 53
25 10 10 25 21 32 23 11 4 15 40 17 156 l4 151 -30 31 c-22 21 -40 30 -64 30
-19 0 -28 4 -21 8 9 5 12 55 13 172 0 219 0 223 -18 236 -8 6 -15 21 -16 35
-1 14 -7 23 -15 21 -7 -1 -10 2 -7 7 3 5 -1 14 -9 21 -8 7 -15 19 -15 28 0 15
-36 52 -52 52 -4 0 -8 7 -8 15 0 8 -4 15 -9 15 -6 0 -22 11 -37 25 -15 14 -39
28 -53 32 -14 3 -29 11 -33 17 -7 11 -254 18 -313 9z m-10 -277 c11 -4 28 -12
37 -17 24 -12 135 -12 143 1 3 6 21 10 39 10 18 0 36 3 39 7 10 9 59 13 71 5
6 -3 22 -8 36 -10 14 -2 29 -7 34 -13 6 -5 17 -9 26 -9 19 0 70 -56 71 -79 1
-9 3 -58 5 -110 2 -52 5 -100 8 -107 3 -7 0 -15 -7 -18 -9 -3 -8 -7 2 -14 27
-19 -7 -22 -49 -5 -14 6 -43 9 -65 6 -22 -2 -46 -5 -52 -5 -7 -1 -13 -5 -13
-10 0 -4 -5 -8 -11 -8 -6 0 -28 -15 -49 -34 -20 -18 -42 -35 -48 -37 -7 -2 -9
-14 -5 -27 3 -15 11 -21 20 -18 8 3 24 -4 36 -15 12 -12 34 -26 50 -31 15 -6
27 -14 27 -18 0 -13 41 -6 77 13 38 20 51 53 29 75 -14 14 -18 14 -50 -3 -29
-16 -39 -17 -60 -7 -14 6 -26 15 -26 20 0 15 72 30 130 29 l54 -2 12 -42 c7
-24 9 -55 5 -70 -4 -16 -6 -41 -4 -58 11 -99 -5 -176 -43 -213 -13 -13 -24
-20 -24 -16 0 4 -9 -1 -21 -12 -16 -15 -23 -16 -37 -6 -9 7 -28 17 -42 23 -14
6 -38 17 -55 25 -16 7 -40 12 -52 10 -13 -3 -25 -1 -28 5 -4 5 -17 9 -31 9
-21 0 -24 3 -18 27 6 22 4 25 -10 20 -30 -12 -47 17 -40 65 4 24 10 48 13 53
12 17 -22 70 -44 70 -16 0 -19 -6 -17 -30 1 -16 -4 -52 -12 -80 -14 -46 -14
-53 2 -86 l18 -36 -44 -13 c-24 -7 -50 -19 -58 -27 -8 -9 -18 -13 -21 -10 -3
4 -13 -3 -22 -14 -16 -20 -17 -19 -53 25 -21 25 -38 48 -38 52 0 4 -12 17 -26
29 -26 22 -27 27 -31 157 -8 215 -5 343 7 343 1 0 3 30 5 66 4 90 8 99 68 141
52 37 88 43 142 24z m-168 -799 c33 -33 56 -97 34 -97 -6 0 -11 -5 -11 -11 0
-5 5 -7 10 -4 6 3 10 -5 10 -18 0 -17 5 -24 18 -23 14 1 18 -9 20 -51 2 -32
-1 -53 -7 -53 -6 0 -11 5 -11 10 0 6 -8 10 -18 10 -15 0 -62 48 -62 64 0 3 -5
17 -11 33 -13 34 -22 173 -12 173 5 0 23 -15 40 -33z m303 -87 c61 5 127 4
140 -2 41 -21 93 -37 101 -32 14 8 10 -13 -5 -29 -17 -17 -36 -81 -36 -123 0
-17 -7 -37 -15 -44 -15 -13 -17 -9 -30 73 -3 20 -10 37 -15 37 -6 0 -10 6 -10
14 0 21 -26 40 -35 25 -4 -6 -3 -14 2 -18 18 -11 35 -83 27 -106 -4 -10 -12
-11 -29 -5 -13 5 -39 7 -57 4 -18 -4 -51 -8 -72 -11 l-39 -5 5 45 c3 26 14 54
27 68 22 24 26 35 13 43 -25 15 -93 -105 -83 -148 1 -5 -6 -5 -16 -1 -10 4
-25 9 -34 12 -10 3 -21 26 -29 59 -17 71 -4 97 59 120 25 10 50 20 54 24 4 4
20 5 35 3 15 -2 34 -4 42 -3z m-262 -217 c35 -23 42 -33 42 -63 0 -14 7 -36
15 -50 8 -14 20 -36 27 -50 19 -38 64 -89 136 -153 60 -55 65 -57 77 -39 12
17 6 26 -63 99 -64 66 -144 183 -126 183 15 0 71 -29 82 -43 8 -9 37 -23 67
-31 70 -21 119 -6 208 61 42 32 74 49 89 47 13 -1 26 -3 31 -3 4 -1 7 -25 7
-55 0 -57 15 -115 35 -131 7 -6 15 -20 19 -33 6 -18 4 -22 -13 -22 -11 0 -40
-16 -65 -35 -26 -19 -51 -35 -57 -35 -13 0 -55 -37 -125 -110 l-53 -55 -56 55
c-30 30 -55 60 -55 66 0 7 -12 17 -27 23 -16 6 -46 24 -68 40 -22 16 -42 29
-45 28 -3 0 -23 7 -45 17 -22 10 -50 22 -63 27 -22 9 -23 12 -15 76 4 38 8 98
8 136 0 37 1 67 3 67 1 0 15 -8 30 -17z m-102 -45 c-13 -106 -28 -188 -34
-189 -4 0 -74 -2 -157 -4 -82 -2 -164 -6 -181 -10 -50 -11 -48 10 3 44 27 16
66 44 88 60 22 16 58 38 80 49 22 10 46 26 54 35 7 10 19 17 26 17 7 0 37 11
67 25 29 14 55 25 56 25 2 0 1 -24 -2 -52z m809 11 c4 -5 10 -7 15 -4 5 3 25
-1 44 -9 19 -8 37 -12 40 -9 3 4 14 0 23 -8 10 -9 29 -20 43 -26 33 -14 141
-113 135 -123 -2 -4 -62 -10 -132 -13 -71 -3 -137 -8 -148 -12 -21 -6 -25 1
-59 90 -9 24 -14 103 -7 118 3 8 41 5 46 -4z m1005 -46 c14 -7 32 -13 40 -13
8 0 33 -9 55 -20 22 -11 46 -19 53 -20 6 0 12 -4 12 -9 0 -5 24 -21 53 -35 58
-28 107 -69 107 -91 0 -8 6 -18 13 -22 37 -22 58 -256 28 -311 -7 -13 -10 -30
-7 -38 5 -14 -86 -108 -108 -110 -6 0 -16 -2 -23 -2 -6 -1 -10 -14 -9 -29 4
-35 29 -40 82 -18 36 15 39 15 64 -5 14 -11 40 -30 57 -43 18 -12 33 -30 33
-39 0 -9 14 -32 30 -50 17 -18 28 -37 26 -43 -2 -5 2 -24 9 -41 9 -22 10 -35
3 -42 -6 -6 -8 -18 -5 -26 7 -19 46 -21 48 -3 1 6 3 26 5 42 1 17 4 35 5 40
12 39 -33 155 -82 210 -10 11 -31 35 -47 54 l-29 35 33 44 c19 24 34 47 34 51
0 8 106 6 152 -4 46 -10 131 -50 147 -69 7 -9 19 -16 27 -16 7 0 15 -9 19 -19
3 -11 15 -23 26 -26 11 -4 18 -9 15 -12 -3 -3 1 -18 8 -32 37 -69 57 -191 32
-191 -19 -1 23 -21 49 -24 13 -1 30 -7 37 -13 7 -6 29 -16 48 -22 35 -11 97
-65 136 -118 32 -43 79 -239 63 -265 -4 -7 -3 -18 2 -24 6 -7 6 -15 1 -18 -5
-3 -7 -25 -5 -48 2 -24 4 -54 3 -68 0 -26 -32 -60 -56 -60 -7 0 -17 -6 -21
-12 -14 -22 -91 -78 -107 -78 -9 0 -16 -4 -16 -9 0 -5 -20 -21 -44 -35 -24
-14 -46 -33 -50 -41 -3 -9 -10 -13 -16 -10 -5 3 -21 -5 -35 -19 -14 -15 -32
-26 -39 -26 -7 0 -23 -10 -36 -22 -26 -25 -49 -39 -95 -61 -16 -8 -36 -21 -44
-30 -7 -10 -22 -17 -32 -17 -11 0 -19 -4 -19 -9 0 -5 -10 -13 -22 -17 -13 -3
-29 -11 -37 -18 -7 -6 -19 -11 -25 -11 -18 -2 -84 -34 -91 -45 -3 -5 -14 -10
-23 -10 -9 0 -28 -9 -42 -20 -14 -11 -30 -20 -37 -20 -6 0 -44 -15 -85 -34
-40 -18 -84 -37 -98 -41 -14 -4 -31 -12 -39 -19 -7 -6 -19 -11 -25 -12 -25 -3
-56 -17 -56 -26 0 -6 -7 -8 -15 -5 -8 4 -17 2 -21 -4 -3 -6 -11 -8 -18 -6 -7
3 -23 -9 -37 -26 -13 -17 -40 -50 -59 -74 -19 -23 -44 -53 -55 -67 -10 -13
-41 -34 -69 -47 -42 -19 -65 -22 -154 -20 -58 1 -110 5 -116 10 -6 4 -51 16
-99 26 -48 10 -90 22 -93 26 -7 12 24 128 49 179 12 25 22 49 22 55 0 5 11 22
25 37 19 21 32 26 50 22 14 -3 31 -6 38 -8 8 -1 32 -19 54 -40 33 -32 44 -37
66 -30 15 4 32 6 39 5 6 -1 14 3 17 7 3 6 25 5 53 -1 27 -5 61 -10 76 -10 26
0 27 -1 13 -15 -13 -13 -13 -18 0 -44 12 -23 17 -26 28 -16 9 8 11 17 5 22 -5
6 -9 15 -9 20 0 6 4 5 9 -2 6 -10 19 1 51 40 23 29 45 59 48 66 8 21 143 162
155 162 5 0 28 15 51 34 23 18 64 44 91 58 28 13 64 32 80 41 51 27 121 57
136 57 8 0 23 7 33 15 11 8 29 15 41 15 12 0 25 3 29 8 4 4 24 8 44 8 91 4
102 7 102 31 0 23 -1 23 -108 19 -59 -3 -120 -9 -135 -15 -15 -6 -27 -8 -27
-5 0 4 -7 1 -15 -6 -8 -7 -15 -10 -15 -6 0 3 -12 1 -26 -4 l-26 -10 5 57 c3
31 12 62 19 68 8 5 20 30 27 54 13 44 69 129 110 165 11 11 21 26 21 34 0 9 3
12 7 9 3 -4 15 0 25 10 21 18 48 35 96 57 17 8 32 21 32 29 0 17 -50 16 -93
-2 -16 -6 -31 -11 -34 -11 -12 0 -113 -73 -113 -81 0 -5 -8 -5 -17 -2 -12 5
-15 2 -10 -9 4 -11 -2 -18 -19 -22 -13 -4 -24 -10 -24 -15 0 -4 -11 -20 -24
-36 l-24 -28 -76 51 c-139 94 -172 131 -241 270 -35 71 -36 76 -32 165 2 51 6
101 9 111 7 29 28 32 29 4 0 -12 3 -17 6 -10 2 6 12 12 20 12 11 0 14 7 10 28
-24 117 -81 262 -104 262 -7 0 -13 9 -13 19 0 11 -11 33 -25 49 -14 17 -25 34
-25 40 0 21 -166 177 -200 189 -19 6 -66 23 -104 37 -92 33 -169 52 -231 55
l-30 1 25 20 c14 11 41 27 60 37 19 10 37 21 40 25 3 4 17 8 30 10 14 2 42 12
63 22 20 10 52 20 70 21 17 2 32 4 32 5 0 1 19 3 43 4 23 2 45 6 49 9 12 13
227 4 253 -10z m-2655 -22 c3 -6 13 -9 23 -9 58 3 234 -77 250 -114 2 -5 9 -8
15 -8 15 0 47 -31 47 -47 0 -7 -6 -13 -14 -13 -7 0 -19 -7 -26 -15 -7 -8 -16
-12 -21 -9 -5 3 -9 1 -9 -4 0 -5 -13 -15 -30 -22 -45 -19 -53 -34 -32 -60 17
-20 21 -21 43 -9 13 7 26 14 29 14 17 3 87 29 96 36 6 5 14 6 17 2 4 -3 13 -1
21 6 11 9 15 9 18 -1 4 -10 8 -10 19 -2 25 21 249 35 324 21 63 -12 211 -59
243 -78 18 -10 41 -19 50 -19 14 0 89 -68 144 -130 19 -21 38 -67 38 -90 0
-11 4 -20 9 -20 6 0 10 -8 10 -17 1 -42 12 -110 23 -130 8 -16 7 -30 -1 -54
-8 -24 -8 -35 0 -46 9 -10 9 -23 0 -51 -6 -20 -13 -50 -15 -67 -5 -43 -21 -77
-45 -99 -11 -11 -21 -25 -21 -32 0 -18 -64 -53 -150 -82 -98 -32 -206 -27
-296 14 -32 15 -62 27 -65 26 -4 -1 -17 10 -29 23 -13 14 -29 25 -37 25 -15 0
-35 16 -107 85 -48 47 -53 49 -69 34 -19 -17 -23 -39 -7 -39 6 0 10 -7 10 -15
0 -8 11 -22 25 -31 14 -9 25 -22 25 -29 0 -7 17 -25 38 -41 20 -15 44 -34 52
-41 8 -8 37 -30 64 -51 64 -49 37 -56 -47 -13 -33 17 -66 31 -73 31 -7 0 -21
11 -32 25 -11 14 -24 25 -30 25 -6 0 -27 24 -48 53 -21 28 -41 54 -44 57 -4 3
-10 13 -13 23 -4 11 -16 21 -27 24 -11 3 -20 11 -20 17 0 7 -13 30 -30 52 -16
21 -30 44 -30 51 0 6 -3 13 -7 15 -5 2 -18 23 -31 47 l-22 44 57 -7 c31 -4 65
-13 74 -22 9 -8 20 -14 25 -13 24 6 140 -67 198 -124 l39 -38 22 21 c12 11 22
27 22 35 0 23 -102 114 -197 176 -51 33 -162 89 -185 94 -5 1 -12 3 -15 4 -3
1 -20 4 -39 7 -19 2 -36 6 -38 8 -2 2 14 15 35 29 64 42 159 135 166 162 4 14
13 25 21 25 19 0 19 19 0 26 -8 4 -15 13 -15 21 0 22 -43 12 -55 -13 -6 -12
-23 -32 -39 -45 -16 -13 -39 -33 -51 -44 -33 -29 -205 -113 -205 -99 0 3 -6 2
-12 -3 -7 -4 -37 -12 -67 -18 -47 -9 -56 -14 -62 -37 -9 -34 1 -41 61 -44 25
-1 52 -3 62 -3 13 -1 46 -61 33 -61 -9 0 76 -159 88 -164 9 -5 8 -8 -2 -12 -8
-4 -25 -18 -38 -30 -13 -13 -28 -24 -33 -24 -5 0 -12 -9 -15 -20 -3 -11 -15
-25 -26 -31 -11 -5 -17 -14 -14 -19 3 -6 -3 -20 -14 -32 -11 -11 -28 -46 -37
-77 -14 -48 -15 -67 -5 -140 7 -46 9 -86 6 -90 -13 -12 -189 -9 -215 4 -14 7
-54 41 -89 74 -35 34 -67 61 -71 61 -4 0 -10 9 -13 20 -3 12 -14 20 -26 20
-14 0 -19 5 -14 15 3 9 -1 23 -8 33 -24 29 -40 62 -35 71 3 4 2 22 -3 38 -10
35 6 106 31 142 17 24 17 25 -3 39 -13 9 -24 11 -28 5 -3 -5 -17 -25 -32 -44
-49 -67 -65 -155 -35 -202 8 -12 17 -36 21 -54 3 -17 17 -44 31 -60 39 -45 44
-52 44 -62 0 -5 21 -28 48 -51 26 -23 50 -50 54 -60 3 -10 25 -26 47 -36 39
-18 49 -39 41 -79 -1 -5 6 -50 15 -100 13 -67 25 -99 46 -127 16 -20 29 -42
29 -48 0 -6 5 -8 10 -5 6 3 10 -2 10 -13 0 -20 33 -56 43 -46 3 3 11 -5 18
-18 6 -12 19 -31 28 -40 82 -85 107 -108 117 -108 7 0 22 -16 34 -35 12 -19
26 -35 31 -35 5 0 9 -4 9 -9 0 -5 -6 -9 -12 -8 -40 1 -49 -3 -40 -20 5 -10 7
-24 4 -32 -3 -11 6 -12 49 -5 50 8 94 9 207 5 26 0 41 -5 37 -11 -4 -6 -10 -8
-15 -5 -10 6 -24 -13 -25 -38 -1 -11 4 -17 14 -15 9 1 21 -1 28 -5 6 -4 14 -3
18 3 3 5 20 10 37 10 29 0 126 46 159 76 8 8 20 14 26 14 6 0 16 6 22 14 21
25 79 9 135 -35 58 -46 69 -63 90 -134 13 -41 13 -58 3 -90 -18 -58 -27 -70
-76 -89 -39 -15 -45 -15 -67 -1 -27 17 -28 19 -15 43 5 9 12 25 15 34 3 11 11
15 21 12 8 -3 15 -1 15 5 0 6 6 11 13 11 8 0 14 6 14 14 0 8 -6 12 -12 9 -7
-2 -15 3 -18 11 -7 18 -40 11 -63 -15 -9 -10 -24 -19 -33 -19 -9 0 -45 -27
-81 -60 -53 -50 -70 -60 -92 -57 -16 2 -28 -1 -28 -7 0 -6 -10 -1 -21 11 -21
20 -21 22 -5 54 21 42 16 46 -9 8 -22 -31 -71 -41 -81 -15 -3 8 -22 17 -42 21
-20 4 -42 11 -48 16 -6 5 -24 10 -40 12 -16 2 -38 8 -49 14 -11 6 -41 14 -67
17 -26 4 -50 11 -52 15 -3 4 -31 13 -63 20 -50 11 -82 18 -154 35 -98 24 -159
41 -188 54 -20 9 -45 17 -56 19 -11 2 -24 8 -29 13 -6 6 -18 10 -27 10 -9 0
-22 7 -29 15 -7 8 -16 13 -20 10 -5 -3 -11 -1 -15 5 -3 5 -15 10 -26 10 -10 0
-19 4 -19 8 0 8 -56 34 -75 36 -5 1 -12 3 -15 6 -14 14 -70 50 -78 50 -5 0
-17 9 -27 20 -10 11 -23 20 -30 20 -13 0 -145 135 -145 149 0 5 -4 11 -9 13
-16 6 -60 86 -66 122 -4 20 -11 36 -17 36 -5 0 -8 6 -7 13 3 18 -11 109 -21
132 -11 26 -25 123 -22 153 2 13 -2 30 -8 37 -6 7 -8 24 -5 37 3 12 8 39 11
58 10 72 17 95 46 160 30 70 46 95 55 90 4 -3 6 -9 4 -15 -10 -25 -1 -101 16
-145 6 -14 13 -43 17 -65 4 -22 13 -49 20 -60 12 -19 22 -53 31 -103 2 -13 10
-34 19 -47 9 -13 16 -31 16 -38 0 -30 168 -213 269 -293 28 -21 50 -45 51 -51
0 -7 4 -13 9 -13 5 0 29 -19 53 -42 24 -23 71 -64 106 -91 34 -27 62 -53 62
-58 0 -5 9 -9 20 -9 28 0 25 26 -5 56 -14 14 -25 29 -25 35 0 6 -13 15 -30 20
-16 6 -30 17 -30 24 0 7 -12 20 -26 30 -39 25 -300 287 -307 308 -4 9 -11 17
-17 17 -5 0 -10 7 -10 15 0 9 -12 27 -26 40 -20 19 -23 25 -11 25 9 0 20 -6
24 -12 7 -12 78 -51 95 -52 16 -2 198 -160 198 -173 0 -4 22 -28 50 -55 47
-45 69 -56 83 -42 7 7 -13 65 -27 80 -6 6 -18 22 -26 34 -19 28 -128 134 -143
139 -7 2 -15 9 -19 14 -3 6 -13 12 -21 13 -9 1 -37 17 -64 35 -52 36 -123 73
-136 71 -15 -4 -67 29 -67 41 0 7 -9 29 -19 50 -16 32 -26 60 -37 102 -1 6 -9
30 -18 55 -16 49 -16 47 -21 164 -3 78 -3 80 28 110 18 16 35 29 38 29 3 -1
19 11 34 27 16 17 36 30 45 30 17 0 48 46 38 56 -11 10 -93 -20 -117 -43 -29
-28 -41 -29 -41 -3 0 21 36 97 56 117 7 7 21 23 31 35 20 26 118 88 137 88 6
0 16 4 21 9 6 5 23 11 40 13 26 3 32 -2 47 -34 10 -21 22 -38 27 -38 5 0 11
-10 13 -22 2 -14 9 -22 18 -20 8 2 19 -3 25 -10 20 -27 74 -58 100 -58 14 0
35 -5 46 -10 13 -8 19 -7 19 0 0 6 5 8 10 5 6 -4 16 -2 23 3 7 6 26 12 42 14
22 2 30 8 30 23 0 18 -8 20 -70 23 -38 1 -71 7 -73 12 -2 6 -11 10 -21 10 -22
0 -84 65 -110 115 -28 57 -25 162 9 232 14 28 33 54 43 56 10 3 21 15 24 26 3
11 17 24 32 30 14 6 33 15 41 21 31 21 127 59 165 65 22 4 45 12 52 17 7 5 21
7 31 4 11 -4 24 0 32 9 14 17 105 21 115 6z m2010 -225 c70 -5 126 -16 140
-26 6 -4 26 -13 46 -19 40 -13 170 -88 181 -105 4 -6 10 -8 13 -4 11 10 73
-45 138 -122 61 -74 72 -104 56 -155 -7 -22 -23 -56 -35 -76 -19 -30 -27 -36
-51 -33 -29 4 -106 -10 -156 -28 -15 -6 -38 -10 -52 -10 -14 0 -25 -5 -25 -10
0 -6 -7 -8 -15 -5 -8 4 -17 2 -20 -3 -4 -6 -14 -10 -24 -10 -10 0 -24 -6 -30
-14 -6 -7 -37 -21 -69 -31 -31 -10 -61 -21 -66 -26 -6 -5 -16 -9 -24 -9 -7 0
-28 -11 -46 -25 -18 -14 -39 -25 -45 -25 -20 0 -63 -38 -52 -45 6 -3 8 -12 5
-20 -5 -11 1 -12 33 -3 21 5 45 16 53 22 8 7 38 19 65 26 28 6 64 18 80 25 17
7 56 18 88 24 32 6 63 14 69 17 7 4 23 9 37 10 14 1 51 5 81 9 30 3 79 7 108
8 l52 2 0 -66 c0 -83 -5 -88 -155 -166 -123 -64 -124 -64 -97 -25 11 15 23 48
27 74 5 34 16 57 42 83 18 19 38 35 43 35 6 0 10 6 10 14 0 15 -33 16 -85 2
-54 -15 -70 -39 -80 -119 -3 -23 -17 -59 -30 -79 -14 -21 -23 -38 -20 -38 3 0
1 -9 -5 -20 -6 -11 -21 -20 -35 -20 -13 0 -36 -5 -52 -11 -38 -15 -101 -22
-206 -23 -92 -1 -121 15 -43 24 24 3 63 15 87 27 24 12 51 24 59 27 8 4 29 15
45 25 17 11 36 20 42 20 19 1 73 62 73 82 0 10 -5 21 -11 25 -11 6 -81 -24
-87 -38 -2 -5 -12 -8 -22 -8 -10 0 -21 -4 -24 -9 -3 -4 -28 -11 -55 -15 -28
-4 -53 -11 -56 -17 -4 -5 -25 -10 -48 -10 -23 -1 -89 -2 -146 -4 -97 -3 -109
-1 -166 25 -33 15 -67 35 -74 44 -7 9 -18 16 -23 16 -13 0 -78 70 -78 84 0 15
58 66 76 66 8 0 14 4 14 9 0 10 75 61 90 61 6 0 30 9 52 20 23 11 53 20 67 21
38 1 67 14 53 23 -7 4 -12 16 -12 27 0 18 -5 19 -57 14 -31 -3 -59 -9 -62 -14
-3 -5 -22 -12 -42 -15 -38 -6 -61 -15 -119 -46 -48 -26 -60 -25 -59 8 1 47
-11 113 -38 210 l-26 92 28 30 c16 17 34 30 41 30 7 0 19 9 26 19 7 10 32 29
55 41 23 12 47 28 54 36 6 8 17 14 23 14 7 0 29 9 51 20 22 11 52 20 67 20 15
0 28 5 28 10 0 6 12 10 28 10 15 -1 45 3 67 7 22 5 58 8 80 7 22 -1 46 1 54 6
8 4 20 6 25 4 6 -2 38 -5 71 -8z m3075 -495 c0 -5 -21 -19 -47 -31 -27 -12
-64 -30 -83 -41 -48 -27 -140 -69 -151 -69 -5 0 -26 -11 -47 -23 -49 -32 -134
-71 -148 -68 -6 1 -17 -6 -24 -14 -7 -8 -21 -15 -32 -15 -10 0 -21 -7 -24 -15
-4 -8 -10 -12 -15 -9 -5 3 -21 -2 -36 -10 -47 -25 -163 -76 -173 -76 -6 0 -10
-4 -10 -9 0 -5 -16 -15 -34 -21 -19 -6 -62 -24 -96 -41 -33 -16 -64 -29 -69
-29 -5 0 -11 -3 -13 -7 -3 -9 -74 -43 -87 -43 -8 0 -24 40 -26 65 0 6 -3 15
-6 20 -3 6 -5 26 -5 45 1 28 5 36 24 38 12 2 22 7 22 11 0 6 20 11 63 14 9 1
17 4 17 8 0 4 17 10 38 14 20 4 42 11 48 16 7 5 16 9 20 7 5 -1 18 3 29 9 11
6 37 14 58 17 21 3 48 12 60 20 12 8 40 17 62 21 22 4 54 13 70 20 17 7 53 19
80 25 28 7 55 17 61 22 7 5 16 8 20 7 5 -1 22 3 37 9 16 7 36 12 46 12 9 0 21
4 27 9 5 5 36 16 69 26 33 9 67 20 75 23 8 3 17 6 20 6 3 1 15 7 28 14 12 7
22 10 22 6 0 -3 6 -1 14 5 8 6 18 11 22 10 16 -3 74 13 80 22 7 12 14 11 14 0z
m-4861 -293 c11 -18 42 -52 69 -75 48 -41 49 -42 47 -95 -2 -29 -3 -54 -4 -55
-1 -2 -1 -6 -2 -10 -2 -21 -56 -104 -70 -108 -19 -6 -33 -45 -16 -45 6 0 19
-8 29 -17 17 -16 20 -15 53 18 19 19 35 40 35 48 0 8 7 19 15 25 8 6 16 20 18
31 1 11 5 25 9 30 3 6 9 25 13 43 5 26 11 32 23 27 10 -4 38 -14 65 -22 26 -9
47 -20 47 -25 0 -5 3 -7 8 -5 4 3 18 0 32 -5 14 -6 41 -13 60 -15 19 -2 37 -9
41 -15 8 -12 24 29 21 50 -2 6 2 12 8 12 5 0 10 -5 10 -10 0 -6 6 -10 13 -8 6
1 28 -3 47 -9 56 -18 190 -26 244 -13 26 6 68 24 91 40 24 17 48 30 54 30 6 0
11 5 11 10 0 6 5 10 11 10 9 0 79 67 79 76 0 2 9 13 21 25 l21 21 32 -34 c44
-49 85 -75 142 -90 27 -7 59 -20 72 -29 12 -9 50 -20 85 -24 99 -10 117 -15
117 -33 0 -9 6 -25 13 -34 12 -15 35 -16 213 -12 109 2 208 4 219 5 10 0 24 4
30 9 5 4 33 11 60 15 28 4 59 11 71 16 20 7 21 5 13 -29 -13 -63 -26 -106 -39
-134 -13 -28 -30 -38 -30 -17 0 5 -4 7 -10 4 -5 -3 -15 -3 -22 1 -16 10 -67
13 -73 4 -2 -4 -26 -13 -52 -20 -27 -8 -74 -34 -108 -60 -65 -50 -140 -79
-158 -61 -6 6 -23 11 -38 11 -15 0 -30 4 -34 10 -3 5 -12 7 -19 4 -8 -3 -17 0
-21 6 -4 6 -15 8 -26 5 -11 -4 -19 -2 -19 5 0 13 -63 42 -100 47 -81 9 -92 9
-97 -4 -7 -17 27 -55 43 -49 6 2 21 -2 33 -10 11 -8 21 -13 21 -9 0 6 49 -24
69 -43 49 -47 169 -77 245 -60 51 11 99 33 116 53 7 8 16 15 21 15 5 0 32 18
61 40 55 42 112 64 133 52 14 -8 8 -26 -30 -87 -14 -22 -36 -61 -49 -86 -14
-25 -31 -51 -40 -58 -8 -7 -12 -19 -9 -27 3 -9 -1 -14 -11 -14 -10 0 -24 -15
-32 -32 -26 -57 -61 -100 -70 -86 -5 7 -9 18 -9 23 0 23 -62 86 -95 96 -19 6
-43 18 -52 27 -13 11 -30 13 -64 8 -58 -7 -77 -22 -68 -50 9 -28 19 -34 63
-34 74 -1 166 -60 189 -121 7 -20 0 -42 -35 -114 -25 -48 -47 -104 -50 -123
-3 -19 -10 -34 -15 -34 -6 0 -8 -6 -5 -14 4 -10 -10 -23 -46 -40 -28 -14 -55
-26 -61 -26 -5 0 -17 -6 -25 -14 -23 -21 -57 -25 -52 -6 2 8 9 43 17 78 15 71
49 147 79 178 28 28 50 64 47 75 -1 5 3 9 10 9 6 0 9 2 6 5 -10 10 -69 -17
-79 -36 -5 -11 -28 -32 -49 -48 -22 -16 -37 -31 -33 -35 3 -3 -1 -14 -9 -23
-8 -10 -18 -31 -22 -48 -20 -89 -45 -107 -119 -85 -124 36 -147 57 -148 134 0
34 -3 91 -8 128 -4 41 -3 72 3 78 6 6 5 15 -4 25 -10 12 -10 18 0 30 7 8 18
15 24 15 6 0 24 7 41 16 30 15 75 12 75 -6 0 -6 7 -10 15 -10 8 0 15 -4 15
-10 0 -5 6 -10 14 -10 8 0 37 -21 65 -46 49 -44 55 -46 114 -48 34 -1 76 5 92
12 49 22 80 40 80 48 0 4 -49 9 -110 10 -86 2 -112 6 -121 18 -6 9 -15 16 -20
16 -5 0 -20 10 -34 23 -54 49 -120 79 -173 79 -35 -1 -53 -6 -59 -16 -19 -34
-23 -11 -23 127 0 116 3 148 17 168 9 14 23 26 32 27 9 1 27 2 40 3 18 1 24 7
24 25 0 14 -4 27 -9 30 -5 3 -9 0 -9 -7 0 -9 -3 -9 -14 0 -10 8 -16 9 -21 1
-3 -5 -16 -10 -29 -10 -12 0 -33 -11 -46 -25 -20 -21 -25 -22 -34 -10 -6 9
-38 26 -71 40 -33 13 -61 31 -63 39 -5 22 -22 20 -22 -3 0 -10 -7 -24 -15 -31
-8 -7 -15 -18 -15 -25 0 -14 27 -28 40 -20 4 3 13 -2 20 -10 7 -8 21 -15 31
-15 11 0 19 -4 19 -10 0 -5 6 -10 14 -10 21 0 28 -47 28 -179 0 -93 -3 -117
-14 -119 -8 -2 -21 4 -28 13 -16 19 -74 20 -90 0 -7 -8 -18 -15 -25 -15 -8 0
-15 -4 -17 -8 -1 -4 -28 -20 -59 -36 -60 -30 -107 -30 -137 0 -17 18 -27 18
-42 -1 -10 -12 -6 -22 20 -55 17 -22 38 -40 46 -40 8 0 14 -3 14 -7 0 -5 18
-9 40 -11 35 -2 46 3 78 34 20 20 63 48 94 63 l56 27 42 -21 c22 -11 38 -23
35 -27 -15 -15 -16 -98 -1 -143 11 -30 15 -64 11 -94 -6 -49 8 -105 34 -132 9
-10 43 -32 76 -50 48 -26 72 -32 120 -33 33 0 70 4 83 8 20 8 22 5 22 -23 0
-28 -5 -33 -66 -61 -37 -16 -72 -30 -79 -30 -7 0 -18 -7 -25 -15 -7 -8 -17
-12 -22 -9 -6 4 -13 3 -17 -2 -3 -5 -21 -17 -39 -26 -32 -17 -32 -17 -32 7 0
14 4 25 9 25 5 0 8 30 6 67 -2 67 -3 68 -53 114 -44 41 -58 47 -109 54 -32 4
-62 10 -68 15 -11 8 -46 16 -115 25 -45 6 -90 40 -90 67 0 7 -7 25 -14 41 -9
16 -11 27 -5 27 6 0 9 6 7 12 -4 11 -23 14 -56 9 -11 -1 -9 -42 4 -66 6 -11
14 -37 18 -57 4 -21 13 -38 20 -38 7 0 25 -13 40 -29 32 -33 118 -60 186 -59
76 2 118 -20 141 -72 22 -47 27 -126 9 -144 -18 -18 -11 -28 15 -22 14 4 25 2
25 -4 0 -5 -8 -10 -19 -10 -10 0 -24 -7 -31 -15 -7 -8 -19 -15 -27 -15 -9 0
-36 -10 -62 -23 -50 -25 -102 -50 -196 -92 -33 -15 -88 -41 -121 -57 l-62 -30
-31 28 c-17 15 -31 33 -31 39 0 7 -6 18 -14 24 -7 6 -17 30 -20 54 -4 23 -9
52 -13 65 -4 18 1 25 28 36 19 8 38 18 42 23 5 4 12 8 17 8 15 0 91 105 84
116 -3 6 -7 28 -8 48 -1 21 -12 57 -24 81 -11 24 -19 47 -16 52 3 4 1 8 -4 8
-6 0 -11 16 -11 35 -1 19 -2 43 -3 53 0 9 -8 26 -18 37 -23 26 -28 43 -40 154
-6 52 -16 101 -22 108 -7 9 -7 17 0 26 5 6 8 34 6 61 -5 52 7 76 37 76 11 0
23 10 29 24 5 13 15 26 22 29 31 11 -16 24 -109 30 -17 1 -35 5 -39 10 -4 4
-15 7 -25 7 -9 0 -19 4 -21 9 -1 4 -13 11 -25 15 -16 5 -25 2 -33 -13 -8 -17
-7 -22 10 -31 11 -6 18 -15 15 -20 -5 -9 66 -70 83 -70 15 0 24 -31 12 -45 -6
-7 -10 -17 -9 -21 1 -5 -3 -22 -10 -39 -19 -46 -11 -227 12 -252 18 -21 23
-53 7 -53 -5 0 -14 9 -20 19 -5 11 -20 21 -32 23 -20 3 -23 9 -25 53 -5 133
-11 194 -19 206 -5 8 -9 19 -9 24 0 16 -37 85 -44 85 -4 0 -15 18 -25 40 -18
42 -23 45 -44 31 -11 -7 -11 -17 1 -57 9 -27 24 -67 35 -89 18 -37 34 -103 46
-196 3 -23 -1 -45 -10 -58 l-15 -21 -22 26 c-12 15 -58 64 -102 111 -155 161
-210 224 -220 247 -5 13 -15 29 -21 37 -6 8 -22 34 -35 59 -13 25 -30 53 -38
63 -8 9 -11 17 -7 17 4 0 1 10 -6 23 -13 23 -14 28 -16 65 -2 20 -5 21 -23 11
-32 -17 -42 1 -43 83 0 56 4 81 19 107 11 18 24 42 30 52 5 11 13 19 16 19 3
0 23 14 44 30 21 17 41 30 46 30 4 0 17 -15 28 -32z m-2129 1 c0 -5 -4 -9 -10
-9 -5 0 -10 -9 -10 -19 0 -11 -4 -22 -9 -25 -7 -5 -21 -70 -22 -103 -1 -5 -5
-13 -11 -20 -5 -7 -7 -16 -4 -21 3 -5 -1 -30 -9 -56 -8 -27 -13 -51 -10 -55 2
-4 -1 -27 -7 -52 -13 -58 -13 -286 1 -322 6 -16 11 -43 11 -62 0 -19 4 -36 9
-39 5 -3 11 -18 14 -33 10 -56 37 -153 46 -170 5 -10 14 -32 20 -50 11 -37
101 -161 117 -162 6 -1 16 -12 22 -26 6 -14 20 -25 30 -25 10 0 31 -13 46 -29
16 -16 39 -32 52 -35 13 -4 24 -13 24 -21 0 -8 7 -15 16 -15 9 0 28 -8 42 -19
15 -10 42 -22 59 -26 18 -3 36 -12 40 -19 9 -14 83 -38 123 -39 14 -1 28 -5
31 -10 3 -4 39 -11 80 -14 41 -3 79 -9 84 -13 25 -20 461 6 489 29 6 5 40 12
75 15 94 9 145 18 156 27 6 4 25 6 42 5 18 -1 34 2 35 6 3 9 35 15 90 17 15 0
33 7 40 14 7 6 29 14 48 15 19 2 40 7 45 11 15 12 97 5 105 -9 4 -6 11 -10 16
-8 14 3 113 -23 119 -32 2 -4 15 -5 28 -3 14 3 29 -2 36 -11 8 -9 28 -16 47
-16 18 0 36 -4 39 -10 3 -5 13 -10 21 -10 8 0 25 -9 37 -20 25 -24 79 -41 88
-27 4 5 9 4 14 -2 12 -20 95 12 95 36 0 7 4 13 9 13 5 0 14 14 20 30 11 34 31
40 31 11 0 -11 5 -23 10 -26 6 -3 10 -15 10 -26 0 -13 7 -19 21 -19 21 0 21
-4 17 -84 -2 -47 -10 -91 -16 -99 -7 -7 -8 -17 -4 -21 4 -4 0 -13 -8 -19 -17
-13 -19 -21 -23 -75 -3 -36 -24 -88 -33 -79 -2 2 -32 -11 -67 -29 -67 -37 -81
-43 -144 -69 -24 -10 -43 -22 -43 -27 0 -5 -5 -6 -11 -3 -5 4 -19 -1 -30 -11
-10 -9 -22 -14 -26 -11 -3 4 -14 -3 -24 -14 -10 -12 -22 -18 -27 -15 -6 3 -15
-1 -22 -10 -7 -8 -19 -13 -26 -10 -6 2 -20 -1 -30 -9 -10 -7 -24 -11 -31 -8
-7 3 -13 1 -13 -5 0 -6 -12 -15 -27 -21 -16 -6 -35 -15 -43 -19 -47 -28 -78
-41 -83 -35 -4 3 -9 -1 -13 -10 -3 -9 -11 -14 -19 -11 -7 3 -19 -1 -26 -8 -8
-7 -23 -14 -33 -16 -10 -2 -25 -10 -33 -17 -7 -8 -30 -17 -49 -21 -20 -4 -38
-13 -41 -20 -3 -8 -9 -12 -14 -9 -4 3 -16 1 -26 -4 -10 -6 -45 -22 -78 -36
-33 -15 -77 -35 -98 -46 -22 -10 -46 -19 -56 -19 -9 0 -28 -8 -41 -17 -14 -10
-25 -16 -25 -14 0 3 -42 -13 -100 -39 -51 -24 -124 -50 -150 -55 -19 -4 -60
-15 -177 -51 -57 -17 -89 -24 -129 -28 -14 -1 -31 -6 -37 -10 -30 -18 -295
-48 -432 -48 -186 -1 -352 15 -376 34 -7 5 -16 8 -20 7 -5 -1 -16 0 -24 3 -8
3 -37 14 -65 24 -27 9 -64 28 -81 41 -17 12 -34 23 -39 23 -25 0 -229 195
-220 210 3 5 -3 15 -12 22 -20 15 -38 41 -54 78 -5 14 -17 39 -25 55 -13 25
-51 150 -58 190 -1 6 -4 15 -8 20 -6 11 -18 85 -23 154 -3 25 -6 69 -9 96 -2
28 0 75 4 105 5 30 12 84 15 120 6 69 11 105 14 105 1 0 4 16 7 35 2 19 7 42
11 50 3 8 7 20 9 25 1 6 8 26 15 45 10 30 16 45 24 70 1 3 7 19 14 35 11 30
16 42 41 100 8 17 14 35 14 40 1 6 20 49 44 97 23 48 42 91 42 96 0 5 6 15 13
21 8 6 20 30 27 53 7 24 21 52 30 63 9 11 24 37 34 58 9 20 21 37 26 37 6 0
10 7 10 16 0 8 11 30 25 48 14 18 25 38 25 44 0 6 14 27 30 45 17 19 30 39 30
43 0 5 17 32 39 60 21 28 51 72 66 97 15 26 31 47 37 47 5 0 7 4 4 8 -3 5 13
32 34 61 22 29 40 57 40 61 0 5 9 6 20 3 11 -3 20 -9 20 -14z m4511 -181 c1
-7 1 -16 0 -20 0 -5 4 -8 9 -8 6 0 16 -11 22 -25 6 -14 17 -25 25 -25 7 0 13
-6 13 -14 0 -12 47 -62 109 -116 35 -30 77 -53 147 -81 24 -10 30 -17 26 -33
-3 -12 -10 -24 -15 -28 -6 -3 -11 -42 -13 -85 l-2 -78 -48 -27 c-27 -15 -58
-31 -69 -36 -68 -32 -233 -205 -262 -274 -8 -18 -17 -35 -22 -38 -4 -3 -10
-10 -12 -16 -3 -8 -18 -7 -54 4 -27 8 -87 15 -132 16 -44 0 -79 4 -77 7 6 10
-39 46 -80 63 l-39 16 21 23 c12 13 22 28 22 34 0 6 3 13 8 15 10 4 82 116 82
128 0 5 7 10 15 10 8 0 15 6 15 14 0 8 11 28 25 44 14 17 25 35 25 41 0 6 20
37 45 70 25 32 45 66 45 74 0 7 9 22 20 32 11 10 20 24 20 32 0 7 4 13 9 13 5
0 12 13 16 29 3 16 13 35 21 42 8 6 14 18 14 25 0 8 5 14 10 14 6 0 10 6 10
13 0 8 8 29 17 48 10 19 17 51 17 72 1 34 14 54 17 25z m-2563 -243 c2 -17 11
-39 21 -50 9 -11 23 -32 31 -47 7 -16 17 -28 22 -28 4 0 8 -7 8 -16 0 -22 38
-91 72 -132 16 -18 28 -39 28 -47 0 -8 7 -15 15 -15 9 0 18 -7 22 -16 8 -21
112 -126 138 -139 11 -6 24 -20 30 -33 5 -12 14 -22 20 -22 5 -1 21 -10 34
-20 19 -17 21 -23 11 -35 -7 -8 -18 -15 -25 -15 -8 0 -15 -5 -17 -10 -2 -6
-29 -4 -73 6 -39 8 -90 18 -115 20 -79 8 -110 15 -110 25 0 6 -13 24 -30 42
-16 18 -30 35 -30 39 0 4 -7 5 -15 1 -9 -3 -15 -1 -13 4 2 6 -36 54 -84 107
-49 53 -88 101 -88 106 0 6 -6 10 -13 10 -8 0 -26 22 -40 48 -21 40 -27 64
-29 132 -3 83 -3 83 24 91 16 4 30 3 34 -2 3 -5 10 -6 17 -2 15 9 118 32 137
29 9 0 16 -14 18 -31z m3814 -255 c-12 -16 -22 -33 -22 -38 0 -16 -27 -62 -54
-92 -14 -17 -26 -32 -26 -34 0 -6 -92 -96 -99 -96 -4 0 -17 -13 -29 -30 -13
-16 -28 -30 -35 -30 -7 -1 -37 -19 -67 -41 -97 -69 -162 -110 -167 -105 -3 3
-18 -1 -34 -10 -16 -8 -29 -12 -29 -9 0 3 -10 0 -22 -7 -13 -6 -59 -17 -103
-24 -95 -15 -122 -21 -134 -29 -5 -3 -13 -1 -16 5 -4 7 -11 8 -18 2 -30 -24
-159 -22 -157 3 1 6 22 17 48 26 26 8 73 28 105 43 32 15 64 29 71 30 8 1 20
7 28 14 8 6 17 10 20 7 3 -3 11 1 18 10 7 8 18 15 25 15 16 0 73 29 80 41 4 5
15 9 26 9 10 0 19 5 19 10 0 6 8 10 19 10 10 0 24 7 31 15 7 8 20 15 30 15 9
0 25 9 35 20 10 11 22 20 28 20 5 0 23 10 40 22 18 13 33 21 35 19 2 -1 22 12
44 29 22 18 61 44 87 57 25 14 55 33 66 42 11 10 48 35 82 56 35 21 68 44 74
52 22 26 23 3 1 -27z"/>
<path d="M4180 7132 c-8 -10 -16 -30 -18 -45 -2 -21 1 -27 17 -27 11 0 22 4
26 10 4 6 15 6 31 0 14 -6 44 -11 68 -12 24 0 54 -9 66 -18 21 -16 21 -16 -30
-28 -36 -8 -57 -9 -70 -2 -27 15 -66 3 -67 -21 -1 -11 5 -19 14 -19 9 0 24 -7
34 -16 9 -8 36 -15 60 -16 36 0 48 5 74 33 21 23 38 33 53 31 12 -2 29 4 38
12 14 15 14 17 0 22 -9 3 -16 12 -16 19 0 6 -9 20 -20 30 -11 10 -20 14 -20 9
0 -5 -4 -4 -8 2 -13 18 -101 46 -160 50 -46 3 -60 0 -72 -14z"/>
<path d="M6582 5624 c-8 -9 -9 -14 -2 -14 6 0 8 -4 5 -10 -3 -5 1 -10 11 -10
21 0 60 -44 79 -87 8 -18 16 -59 19 -90 2 -32 5 -59 5 -60 1 -1 9 0 19 1 9 2
19 11 21 22 2 10 8 22 13 25 7 4 6 13 0 26 -7 12 -7 24 -2 29 6 6 4 20 -5 38
-8 16 -15 33 -15 40 0 6 -17 30 -38 53 -41 45 -88 61 -110 37z"/>
<path d="M6970 5224 c0 -4 7 -12 15 -18 8 -6 17 -28 19 -49 3 -21 10 -45 17
-53 6 -7 13 -47 15 -86 2 -40 6 -83 9 -95 7 -29 -33 -66 -87 -82 -21 -7 -42
-19 -45 -27 -3 -7 -9 -12 -14 -9 -4 3 -25 -2 -46 -11 -21 -9 -44 -16 -51 -15
-7 1 -19 -5 -28 -14 -8 -8 -24 -15 -34 -15 -10 0 -21 -4 -24 -9 -7 -10 46 -23
54 -13 3 4 30 8 60 8 61 1 249 61 280 89 15 13 17 28 15 83 -2 37 -4 67 -5 67
0 0 -3 20 -6 44 -2 24 -11 55 -19 70 -8 14 -22 42 -32 61 -24 49 -53 80 -75
80 -10 0 -18 -3 -18 -6z"/>
<path d="M2320 4644 c0 -15 15 -44 37 -70 41 -51 187 -176 200 -172 5 2 29
-13 53 -32 25 -20 77 -51 115 -70 39 -19 73 -39 77 -45 4 -5 8 -6 8 -1 0 4 11
1 25 -8 13 -9 29 -16 34 -16 5 0 22 -5 38 -12 15 -6 32 -10 37 -9 4 1 15 -4
23 -11 8 -7 27 -14 42 -16 14 -2 34 -10 43 -19 9 -8 22 -12 27 -8 6 3 13 0 16
-7 3 -7 20 -14 39 -15 18 -2 51 -10 72 -20 21 -9 44 -17 49 -18 11 -1 107 -18
115 -20 3 -1 18 -7 33 -13 16 -7 32 -10 37 -7 5 3 11 1 15 -5 3 -5 24 -10 45
-10 29 0 39 4 42 18 3 14 -8 19 -57 30 -72 15 -77 16 -90 24 -5 3 -37 11 -70
18 -33 7 -64 15 -70 18 -5 4 -14 7 -20 9 -61 14 -133 37 -145 47 -8 7 -35 18
-60 25 -25 7 -51 18 -59 24 -7 7 -19 12 -25 12 -11 0 -157 72 -241 118 -21 12
-47 30 -57 39 -9 9 -32 25 -50 34 -18 9 -56 37 -84 60 -28 24 -54 44 -58 44
-4 0 -31 25 -61 55 -59 61 -75 67 -75 29z"/>
<path d="M3713 4097 c-42 -30 -76 -74 -68 -87 3 -5 0 -10 -8 -10 -7 0 -14 -7
-14 -15 0 -11 11 -14 44 -13 39 2 48 8 44 30 -3 19 51 39 101 38 71 -2 78 -1
78 9 0 5 -6 16 -12 23 -7 7 -13 20 -13 28 0 11 -14 16 -60 17 -49 2 -66 -2
-92 -20z"/>
<path d="M5301 5969 c-24 -6 -57 -20 -72 -31 -22 -17 -26 -24 -17 -38 10 -15
25 -17 102 -16 50 1 105 -1 121 -6 17 -4 44 -10 60 -12 40 -7 103 -40 135 -71
21 -20 33 -25 54 -19 28 7 35 31 11 40 -8 4 -13 10 -10 14 10 16 -88 88 -134
100 -25 6 -58 18 -72 26 -36 19 -125 25 -178 13z"/>
<path d="M4573 5049 c-10 -4 -28 -5 -40 -2 -18 4 -25 -1 -33 -22 -18 -47 -13
-58 20 -51 21 4 30 2 30 -8 0 -8 12 -13 28 -14 15 0 60 -4 99 -7 51 -5 77 -4
87 4 11 9 15 9 19 -1 4 -10 7 -11 18 0 7 6 24 12 37 12 19 0 23 5 20 23 -3 26
-82 69 -110 61 -10 -3 -23 -2 -30 3 -16 10 -120 11 -145 2z"/>
<path d="M4023 5014 c-12 -31 -65 -74 -92 -74 -21 0 -23 -2 -11 -11 11 -8 9
-9 -10 -4 -14 4 -27 7 -30 7 -91 1 -112 -3 -136 -27 -14 -14 -28 -25 -33 -25
-11 0 -47 -41 -54 -62 -4 -12 -2 -15 9 -11 7 3 14 0 14 -6 0 -17 25 -13 44 8
22 24 95 44 140 39 20 -2 36 0 36 5 0 5 6 4 14 -2 11 -9 15 -8 20 4 3 9 10 14
15 11 16 -10 87 33 101 61 17 34 21 63 8 63 -5 0 -6 9 -3 20 8 25 -22 28 -32
4z"/>
<path d="M5350 4960 c0 -6 -6 -10 -13 -10 -8 0 -24 -12 -38 -26 -13 -15 -38
-33 -56 -40 -38 -16 -109 -19 -118 -4 -10 15 -35 12 -42 -6 -4 -10 7 -27 33
-50 33 -28 47 -34 87 -34 39 0 56 6 98 38 33 24 52 47 56 65 3 15 9 27 14 27
15 0 10 38 -6 44 -8 3 -15 1 -15 -4z"/>
<path d="M4390 4839 c0 -6 -7 -9 -15 -5 -16 6 -100 -86 -100 -110 0 -13 -67
-95 -135 -164 -19 -19 -35 -41 -36 -47 -4 -21 16 -26 35 -9 10 9 22 16 28 16
6 0 13 7 17 15 3 8 30 30 60 50 57 36 96 81 96 110 0 22 41 95 53 95 5 0 15 7
21 15 6 9 21 17 34 18 40 3 25 27 -18 27 -23 0 -40 -5 -40 -11z"/>
</g>
</svg>
