<?xml version="1.0" standalone="no"?>
<!DOCTYPE svg PUBLIC "-//W3C//DTD SVG 20010904//EN"
 "http://www.w3.org/TR/2001/REC-SVG-20010904/DTD/svg10.dtd">
<svg version="1.0" xmlns="http://www.w3.org/2000/svg"
 width="512.000000pt" height="512.000000pt" viewBox="0 0 512.000000 512.000000"
 preserveAspectRatio="xMidYMid meet">
<metadata>
Created by potrace 1.16, written by Peter Selinger 2001-2019
</metadata>
<g transform="translate(0.000000,512.000000) scale(0.100000,-0.100000)"
fill="#000000" stroke="none">
<path d="M2235 5105 c-592 -78 -1117 -344 -1532 -779 -359 -376 -596 -854
-678 -1366 -26 -160 -32 -539 -11 -710 98 -801 568 -1510 1271 -1915 264 -152
544 -252 859 -307 174 -30 543 -37 727 -13 1102 138 1984 955 2204 2040 47
230 59 584 30 825 -41 330 -155 671 -316 950 -412 709 -1108 1173 -1912 1275
-145 18 -500 18 -642 0z m473 -1031 c361 -74 611 -381 612 -749 0 -212 -85
-404 -245 -553 -291 -273 -739 -273 -1030 0 -162 151 -245 340 -245 559 0 476
443 839 908 743z m113 -2049 c220 -29 422 -90 624 -188 156 -76 266 -146 402
-255 114 -92 293 -276 293 -302 0 -26 -181 -212 -299 -306 -303 -244 -663
-396 -1051 -444 -109 -13 -351 -13 -460 0 -389 49 -747 200 -1051 444 -118 94
-299 280 -299 306 0 26 181 212 299 306 292 235 647 389 1011 439 129 18 401
18 531 0z"/>
</g>
</svg>
